<svg width="60" height="60" viewBox="0 0 60 60" fill="none" xmlns="http://www.w3.org/2000/svg">
<circle cx="30" cy="30" r="30" fill="#602E9A"/>
<circle cx="30" cy="30" r="16" stroke="#EAEAEA" stroke-width="2"/>
<path d="M30.4978 38.177C29.8219 38.1153 29.1786 37.8517 28.6472 37.4189C27.9443 36.9109 27.2785 36.351 26.6552 35.7435C25.4686 34.615 24.0582 33.0978 22.4589 31.2318C21.4774 30.0517 20.9583 28.5396 21.0026 26.989C21.0469 25.4383 21.6513 23.9599 22.6986 22.8409C23.6927 21.7527 25.0561 21.0976 26.5074 21.0108C27.9586 20.9239 29.387 21.4119 30.4978 22.3741C31.6086 21.412 33.0369 20.9237 34.4883 21.0097C35.9397 21.0957 37.3036 21.7496 38.2991 22.8365C39.3477 23.9559 39.9531 25.4354 39.9974 26.9873C40.0417 28.5392 39.5217 30.0525 38.5387 31.2329C36.9404 33.0978 35.529 34.6161 34.3425 35.7446C33.7193 36.3509 33.0539 36.9097 32.3515 37.4167C31.8195 37.8509 31.1749 38.1153 30.4978 38.177ZM26.8388 22.7326C26.2772 22.7326 25.7215 22.8502 25.2058 23.0784C24.6901 23.3065 24.2252 23.6403 23.8397 24.0592C23.087 24.857 22.6504 25.9135 22.6149 27.0232C22.5794 28.1329 22.9475 29.2165 23.6476 30.0633C25.211 31.8881 26.5834 33.3642 27.7267 34.4493C28.2881 34.9988 28.8879 35.5055 29.5213 35.9655C29.8072 36.1996 30.141 36.3643 30.4978 36.4474C30.8542 36.3638 31.1876 36.1987 31.4732 35.9644C32.1065 35.5045 32.7063 34.9977 33.2678 34.4483C34.4111 33.3653 35.7834 31.887 37.3469 30.0622C38.0467 29.2154 38.4147 28.1318 38.3792 27.0222C38.3437 25.9125 37.9072 24.856 37.1547 24.0581C36.4344 23.2703 35.4468 22.7962 34.3956 22.7337C33.3445 22.6713 32.3101 23.0252 31.5059 23.7224L30.4978 24.5899L29.4875 23.7235C28.7449 23.086 27.8082 22.7354 26.8399 22.7326H26.8388Z" fill="#EAEAEA"/>
</svg>
