<svg width="257" height="257" viewBox="0 0 257 257" fill="none" xmlns="http://www.w3.org/2000/svg">
<path d="M119 224C119 229.523 123.477 234 129 234C134.523 234 139 229.523 139 224H119ZM136.071 25.8635C132.166 21.9583 125.834 21.9583 121.929 25.8635L58.2893 89.5031C54.3841 93.4084 54.3841 99.74 58.2893 103.645C62.1946 107.55 68.5262 107.55 72.4315 103.645L129 47.0767L185.569 103.645C189.474 107.55 195.805 107.55 199.711 103.645C203.616 99.74 203.616 93.4084 199.711 89.5031L136.071 25.8635ZM139 224V32.9346H119V224H139Z" fill="#212121"/>
<circle cx="128.5" cy="128.5" r="122.5" stroke="#212121" stroke-width="12"/>
</svg>
