<svg width="60" height="60" viewBox="0 0 60 60" fill="none" xmlns="http://www.w3.org/2000/svg">
<circle cx="30" cy="30" r="30" fill="#602E9A"/>
<circle cx="29" cy="30" r="16" stroke="#EAEAEA" stroke-width="2"/>
<path d="M29.5 39C29.1056 38.9994 28.7254 38.859 28.4333 38.6058C27.0095 37.3643 25.7371 35.973 24.6405 34.4585C23.0273 32.3777 22.1072 29.8812 22 27.2939C22 25.3938 22.7902 23.5715 24.1967 22.2278C25.6032 20.8842 27.5109 20.1294 29.5 20.1294C31.4891 20.1294 33.3968 20.8842 34.8033 22.2278C36.2098 23.5715 37 25.3938 37 27.2939C36.8923 29.8814 35.9723 32.3782 34.3595 34.4595C33.2625 35.9741 31.9898 37.3654 30.5656 38.6069C30.2738 38.8596 29.894 38.9998 29.5 39ZM29.5 21.7219C27.9533 21.7233 26.4704 22.3107 25.3767 23.3554C24.2829 24.4 23.6677 25.8165 23.6659 27.2939C23.7725 29.5609 24.5925 31.7444 26.0189 33.559C27.0241 34.9545 28.192 36.2364 29.5 37.3803C30.8089 36.2373 31.9768 34.9552 32.9811 33.559C34.4075 31.7444 35.2275 29.5609 35.3341 27.2939C35.3326 25.8163 34.7175 24.3995 33.6237 23.3547C32.5299 22.3098 31.0468 21.7222 29.5 21.7208V21.7219ZM29.5 30.4789C28.8408 30.4789 28.1965 30.2922 27.6484 29.9424C27.1003 29.5926 26.6731 29.0954 26.4208 28.5136C26.1685 27.9319 26.1025 27.2918 26.231 26.6742C26.3595 26.0566 26.6768 25.4893 27.1428 25.044C27.6089 24.5987 28.2026 24.2954 28.8491 24.1724C29.4956 24.0494 30.1657 24.1123 30.7747 24.3532C31.3837 24.594 31.9044 25.0019 32.2707 25.5253C32.6371 26.0488 32.8328 26.6643 32.833 27.2939C32.8321 28.1381 32.4807 28.9475 31.8558 29.5444C31.2309 30.1413 30.3837 30.477 29.5 30.4778V30.4789ZM29.5 25.7025C29.1702 25.7025 28.8479 25.7959 28.5737 25.971C28.2996 26.146 28.0859 26.3948 27.9598 26.6858C27.8336 26.9769 27.8007 27.2971 27.8651 27.606C27.9295 27.915 28.0884 28.1987 28.3216 28.4214C28.5549 28.6441 28.852 28.7957 29.1755 28.857C29.4989 28.9183 29.8341 28.8866 30.1387 28.7659C30.4433 28.6452 30.7036 28.441 30.8866 28.1789C31.0697 27.9169 31.1672 27.6089 31.167 27.2939C31.1667 26.8717 30.991 26.4668 30.6784 26.1682C30.3659 25.8696 29.942 25.7017 29.5 25.7015V25.7025Z" fill="#EAEAEA"/>
</svg>
