<svg width="40" height="40" viewBox="0 0 40 40" fill="none" xmlns="http://www.w3.org/2000/svg">
<g clip-path="url(#clip0_194_45)">
<path d="M38.3329 18.3339C37.8908 18.3339 37.4669 18.5095 37.1544 18.8221C36.8418 19.1347 36.6662 19.5586 36.6662 20.0006C36.6797 23.8761 35.3469 27.6359 32.8954 30.6375C30.4439 33.6391 27.0261 35.6962 23.226 36.457C19.426 37.2178 15.4796 36.6352 12.0615 34.8087C8.64342 32.9823 5.96577 30.0254 4.48626 26.4434C3.00675 22.8614 2.81722 18.8768 3.95007 15.1706C5.08292 11.4644 7.46781 8.2667 10.6971 6.12406C13.9264 3.98142 17.7997 3.02687 21.6548 3.42356C25.5099 3.82026 29.1076 5.54357 31.8329 8.29894C31.7781 8.3139 31.7224 8.32558 31.6662 8.33394H26.6662C26.2242 8.33394 25.8003 8.50954 25.4877 8.8221C25.1751 9.13466 24.9995 9.55858 24.9995 10.0006C24.9995 10.4426 25.1751 10.8666 25.4877 11.1791C25.8003 11.4917 26.2242 11.6673 26.6662 11.6673H31.6662C32.9923 11.6673 34.2641 11.1405 35.2017 10.2028C36.1394 9.26513 36.6662 7.99336 36.6662 6.66728V1.66728C36.6662 1.22525 36.4906 0.801326 36.1781 0.488766C35.8655 0.176205 35.4416 0.000610352 34.9995 0.000610352C34.5575 0.000610352 34.1336 0.176205 33.821 0.488766C33.5085 0.801326 33.3329 1.22525 33.3329 1.66728V5.10894C29.9205 2.05816 25.5644 0.270888 20.9926 0.0457814C16.4208 -0.179325 11.9103 1.17137 8.21467 3.87217C4.51906 6.57296 1.86226 10.4602 0.688247 14.8844C-0.485769 19.3087 -0.105888 24.0018 1.76441 28.1795C3.63471 32.3573 6.88213 35.7667 10.964 37.8379C15.0459 39.9092 19.715 40.5168 24.191 39.5594C28.6671 38.6019 32.679 36.1373 35.5563 32.5774C38.4336 29.0175 40.0021 24.5779 39.9995 20.0006C39.9995 19.5586 39.8239 19.1347 39.5114 18.8221C39.1988 18.5095 38.7749 18.3339 38.3329 18.3339Z" fill="#602E9A"/>
<path d="M20.0007 10.0006C19.5586 10.0006 19.1347 10.1762 18.8221 10.4888C18.5096 10.8013 18.334 11.2252 18.334 11.6673V20.0006C18.3341 20.4426 18.5097 20.8665 18.8223 21.1789L23.8223 26.1789C24.1367 26.4825 24.5577 26.6505 24.9947 26.6467C25.4316 26.6429 25.8497 26.4677 26.1587 26.1586C26.4677 25.8496 26.643 25.4316 26.6468 24.9946C26.6506 24.5576 26.4826 24.1366 26.179 23.8223L21.6673 19.3106V11.6673C21.6673 11.2252 21.4917 10.8013 21.1792 10.4888C20.8666 10.1762 20.4427 10.0006 20.0007 10.0006Z" fill="#602E9A"/>
</g>
<defs>
<clipPath id="clip0_194_45">
<rect width="40" height="40" fill="white" transform="translate(0 0.000610352)"/>
</clipPath>
</defs>
</svg>
