<?xml version="1.0" encoding="UTF-8"?>
<svg id="Camada_2" data-name="Camada 2" xmlns="http://www.w3.org/2000/svg" viewBox="0 0 786.16 311.3">
  <defs>
    <style>
      .cls-1 {
        fill: #eaeaea;
      }
    </style>
  </defs>
  <g id="Camada_1-2" data-name="Camada 1">
    <g>
      <path class="cls-1" d="m334.12,56.43h-.22v50.69h.22m-147.18-4.31v3.76h1.06c-.32-1.28-.68-2.52-1.06-3.76Z"/>
      <path class="cls-1" d="m100.24,107.19h-7.6c1.28-.12,2.57-.18,3.88-.18s2.51.06,3.72.18Z"/>
      <g>
        <path class="cls-1" d="m188.16,107.19h-87.72c-.13,0-.26,0-.4-.02-1.15-.11-2.33-.17-3.53-.17-1.31,0-2.6.06-3.88.18-10.65,1.02-19.96,6.33-19.96,16.65,0,14.07,18.67,18.73,42,24.59,36.47,9.4,84.15,21.59,84.15,78.16s-41.58,82.2-99.11,82.2S2.62,278.93,0,228.29c-.16-3.02,2.29-5.56,5.31-5.56h60.04c2.67,0,4.87,2,5.26,4.64,2.19,14.56,14.74,21.67,28.87,21.67s27.96-7.6,27.96-21.15c0-15.54-19.3-20.05-42.88-25.76C48.77,193.25,3.05,182.27,3.05,125.85c0-35.33,18.81-59.73,51.37-70.5,11.34-3.76,24.36-5.86,38.84-6.19h130.84c1.47,0,2.87-.61,3.87-1.67L271.01,1.67c1-1.07,2.4-1.67,3.87-1.67h5.92c2.93,0,5.31,2.38,5.31,5.31v38.55c0,2.93,2.38,5.31,5.31,5.31h37.18c2.93,0,5.31,2.38,5.31,5.31v46.79c0,2.93-2.38,5.31-5.31,5.31h-35.54c-2.93,0-5.31,2.38-5.31,5.31v55.53c0,13.68,8.26,21.95,22.16,21.95h19.96c2.69,0,4.91,2,5.26,4.59.12.89.43,1.74.74,2.58l16.69,45.19c0,2.93-2.38,5.31-5.31,5.31h-57.38c-42.26,0-67.96-25.84-67.96-68.31v-66.82c0-2.93-2.38-4.68-5.31-4.68l-24.57-.07"/>
        <path class="cls-1" d="m685.5,42.91c-22.81,0-43.12,7.88-58.93,21.53l-5.47-10.08c-1.72-3.18-5.05-5.15-8.66-5.15h-134.02c-5.44,0-9.86,4.41-9.86,9.86v46.35l-.44,52.86c0,20.49-10.91,32.86-28.95,32.86s-29.17-12.17-29.17-32.86V59.19c0-5.44-4.41-9.86-9.86-9.86h-47.81c-5.44,0-9.86,4.41-9.86,9.86v102.03c0,54.85,38.78,90.59,96.7,90.59s96.48-35.74,96.48-90.59v-45.94c0-5.44,4.41-9.86,9.86-9.86h17.96c5.44,0,9.86,4.41,9.86,9.86v185.35c0,5.44,4.41,9.86,9.86,9.86h45.65c5.44,0,9.86-4.41,9.86-9.86v-49.83c0-6.91,6.93-11.81,13.37-9.3,10.26,4.01,21.5,6.17,33.44,6.17,58.7,0,100.66-42.68,100.66-102.49s-41.96-102.27-100.66-102.27Zm53.48,109.81c-1.36,1.66-3.11,2.83-4.95,3.9-20.59,11.81-41.16,23.59-61.74,35.4-2.73,1.57-5.39,3.28-8.48,4.03-.72.17-1.46.22-2.2.22h-1.2c-.12-.05-.23-.12-.35-.14-2.69-.44-4.62-1.92-5.89-4.3-1.28-2.34-1.57-4.91-1.57-7.52,0-24.8-.02-49.6.02-74.41.02-1.8.24-3.66.72-5.4,1.17-4.39,4.62-6.86,8.94-6.52,2.43.17,4.64,1.12,6.73,2.33,21.72,12.45,43.45,24.91,65.14,37.4,1.54.87,3.01,1.98,4.27,3.22,3.55,3.46,3.71,7.96.58,11.81Z"/>
      </g>
      <path class="cls-1" d="m227.97,265.34h302.55c8.24,0,14.93,6.69,14.93,14.93v31.03H213.04v-31.03c0-8.24,6.69-14.93,14.93-14.93Z"/>
    </g>
  </g>
</svg>