<svg width="252" height="252" viewBox="0 0 252 252" fill="none" xmlns="http://www.w3.org/2000/svg">
<rect width="252" height="252" rx="126" fill="#EAEAEA"/>
<path d="M136 59.0001C136 53.4773 131.523 49.0001 126 49.0001C120.477 49.0001 116 53.4773 116 59.0001H136ZM118.929 200.141C122.834 204.046 129.166 204.046 133.071 200.141L196.711 136.501C200.616 132.596 200.616 126.265 196.711 122.359C192.805 118.454 186.474 118.454 182.569 122.359L126 178.928L69.4315 122.359C65.5262 118.454 59.1946 118.454 55.2893 122.359C51.3841 126.265 51.3841 132.596 55.2893 136.501L118.929 200.141ZM116 59.0001V193.07H136V59.0001H116Z" fill="#602E9A"/>
</svg>
