<svg width="60" height="60" viewBox="0 0 60 60" fill="none" xmlns="http://www.w3.org/2000/svg">
<circle cx="30" cy="30" r="30" fill="#602E9A"/>
<path d="M23.4551 38.6475C23.1919 38.5395 22.9544 38.3658 22.7606 38.1397C22.5668 37.9137 22.4218 37.641 22.3366 37.3426C22.2555 37.056 22.2356 36.7519 22.2787 36.4546C22.3217 36.1574 22.4264 35.8753 22.5843 35.631L26.052 30.0317L24.0136 27.9883C23.801 27.7758 23.6374 27.509 23.5368 27.2105C23.4361 26.9121 23.4013 26.5907 23.4353 26.2735C23.4692 25.9562 23.571 25.6525 23.7319 25.3879C23.8928 25.1234 24.1082 24.9057 24.3599 24.7533L34.144 18.8374C34.3609 18.701 34.6012 18.618 34.8488 18.5939C35.0964 18.5698 35.3456 18.6052 35.5796 18.6977C35.8425 18.8058 36.0798 18.9795 36.2734 19.2055C36.467 19.4315 36.6118 19.7039 36.697 20.0022C36.778 20.2888 36.7978 20.5929 36.7548 20.8901C36.7118 21.1873 36.6071 21.4694 36.4493 21.7138L33 27L35.0216 29.3516C35.2342 29.5641 35.3977 29.8309 35.4984 30.1293C35.599 30.4278 35.6339 30.7492 35.5999 31.0664C35.5659 31.3836 35.4642 31.6874 35.3033 31.9519C35.1424 32.2165 34.927 32.4342 34.6753 32.5866L24.8907 38.5078C24.6738 38.6442 24.4335 38.7272 24.1859 38.7513C23.9382 38.7754 23.689 38.74 23.4551 38.6475ZM34.985 20.5865L25.2035 26.5021L28.4123 29.7071L24.0486 36.7582L33.8312 30.8431L30.6224 27.6381L34.985 20.5865Z" fill="white"/>
<circle cx="30" cy="30" r="16" stroke="#EAEAEA" stroke-width="2"/>
</svg>
