<svg width="40" height="40" viewBox="0 0 40 40" fill="none" xmlns="http://www.w3.org/2000/svg">
<g clip-path="url(#clip0_194_41)">
<path d="M34.4173 20.7068V18.3334C34.4173 14.3552 32.8657 10.5399 30.1038 7.72683C27.3419 4.91379 23.596 3.33344 19.69 3.33344C15.7841 3.33344 12.0382 4.91379 9.27628 7.72683C6.51438 10.5399 4.96277 14.3552 4.96277 18.3334V20.7068C3.24648 21.4765 1.84189 22.8234 0.984146 24.5219C0.126399 26.2204 -0.132444 28.1675 0.250951 30.0372C0.634345 31.9069 1.6367 33.5857 3.09023 34.7925C4.54375 35.9994 6.3602 36.6611 8.23549 36.6668C9.10347 36.6668 9.93591 36.3156 10.5497 35.6905C11.1634 35.0653 11.5082 34.2175 11.5082 33.3334V23.3334C11.5082 22.4494 11.1634 21.6015 10.5497 20.9764C9.93591 20.3513 9.10347 20.0001 8.23549 20.0001V18.3334C8.23549 15.2392 9.44231 12.2718 11.5905 10.0839C13.7386 7.89593 16.6521 6.66677 19.69 6.66677C22.728 6.66677 25.6415 7.89593 27.7896 10.0839C29.9378 12.2718 31.1446 15.2392 31.1446 18.3334V20.0001C30.2766 20.0001 29.4442 20.3513 28.8304 20.9764C28.2167 21.6015 27.8719 22.4494 27.8719 23.3334V33.3334H22.9628C22.5288 33.3334 22.1126 33.509 21.8057 33.8216C21.4988 34.1341 21.3264 34.5581 21.3264 35.0001C21.3264 35.4421 21.4988 35.8661 21.8057 36.1786C22.1126 36.4912 22.5288 36.6668 22.9628 36.6668H31.1446C33.0199 36.6611 34.8363 35.9994 36.2899 34.7925C37.7434 33.5857 38.7457 31.9069 39.1291 30.0372C39.5125 28.1675 39.2537 26.2204 38.3959 24.5219C37.5382 22.8234 36.1336 21.4765 34.4173 20.7068ZM8.23549 33.3334C6.93352 33.3334 5.68487 32.8067 4.76424 31.869C3.84361 30.9313 3.3264 29.6595 3.3264 28.3334C3.3264 27.0074 3.84361 25.7356 4.76424 24.7979C5.68487 23.8602 6.93352 23.3334 8.23549 23.3334V33.3334ZM31.1446 33.3334V23.3334C32.4466 23.3334 33.6952 23.8602 34.6158 24.7979C35.5365 25.7356 36.0537 27.0074 36.0537 28.3334C36.0537 29.6595 35.5365 30.9313 34.6158 31.869C33.6952 32.8067 32.4466 33.3334 31.1446 33.3334Z" fill="#602E9A"/>
</g>
<defs>
<clipPath id="clip0_194_41">
<rect width="39.2727" height="40" fill="white" transform="translate(0.0546875 0.000610352)"/>
</clipPath>
</defs>
</svg>
