<svg width="60" height="60" viewBox="0 0 60 60" fill="none" xmlns="http://www.w3.org/2000/svg">
<circle cx="30" cy="30" r="30" fill="#602E9A"/>
<circle cx="30" cy="30" r="16" stroke="#EAEAEA" stroke-width="2"/>
<path d="M27 25C27 23.3431 28.3431 22 30 22C31.6569 22 33 23.3431 33 25C33 26.6569 31.6569 28 30 28C28.3431 28 27 26.6569 27 25ZM30.64 37.058C29.435 37.058 28.2652 37.2524 27.2315 37.4574C26.9253 37.5181 26.6368 37.5783 26.3636 37.6353C25.6765 37.7786 25.0857 37.9019 24.5491 37.9635C23.7758 38.0522 23.4449 37.9622 23.3055 37.8638C23.232 37.8119 23 37.6044 23 36.6763C23 33.0276 26.0947 30 30 30C33.9053 30 37 33.0276 37 36.6763C37 37.697 36.8061 37.9333 36.7818 37.9564C36.7788 37.9593 36.7757 37.9619 36.7668 37.966C36.756 37.9709 36.73 37.9809 36.6799 37.9888C36.5705 38.0061 36.395 38.0066 36.1187 37.967C35.7407 37.9129 35.3354 37.8136 34.8369 37.6914C34.5506 37.6213 34.2336 37.5436 33.8733 37.4626C32.9444 37.2538 31.8505 37.058 30.64 37.058Z" stroke="#EAEAEA" stroke-width="2"/>
</svg>
