<svg width="15" height="21" viewBox="0 0 15 21" fill="none" xmlns="http://www.w3.org/2000/svg">
<path d="M1.45507 20.6475C1.19189 20.5395 0.954406 20.3658 0.760613 20.1397C0.56682 19.9137 0.421809 19.641 0.336573 19.3426C0.25547 19.056 0.235636 18.7519 0.278657 18.4546C0.321678 18.1574 0.426361 17.8753 0.584319 17.631L4.05203 12.0317L2.01358 9.98832C1.80097 9.77577 1.63744 9.509 1.53679 9.21054C1.43614 8.91207 1.40132 8.59067 1.43528 8.27346C1.46923 7.95624 1.57096 7.65252 1.73188 7.38794C1.8928 7.12336 2.10818 6.90568 2.35985 6.75327L12.144 0.837351C12.3609 0.700999 12.6012 0.617989 12.8488 0.593901C13.0964 0.569812 13.3456 0.605201 13.5796 0.697692C13.8425 0.805822 14.0798 0.979464 14.2734 1.20547C14.467 1.43148 14.6118 1.70393 14.697 2.00219C14.778 2.28881 14.7978 2.59288 14.7548 2.89008C14.7118 3.18729 14.6071 3.46938 14.4493 3.7138L11 9L13.0216 11.3516C13.2342 11.5641 13.3977 11.8309 13.4984 12.1293C13.599 12.4278 13.6339 12.7492 13.5999 13.0664C13.5659 13.3836 13.4642 13.6874 13.3033 13.9519C13.1424 14.2165 12.927 14.4342 12.6753 14.5866L2.89071 20.5078C2.67381 20.6442 2.43347 20.7272 2.18585 20.7513C1.93823 20.7754 1.68905 20.74 1.45507 20.6475ZM12.985 2.58652L3.20349 8.5021L6.41229 11.7071L2.04856 18.7582L11.8312 12.8431L8.62238 9.63814L12.985 2.58652Z" fill="white"/>
</svg>
