<svg width="41" height="40" viewBox="0 0 41 40" fill="none" xmlns="http://www.w3.org/2000/svg">
<g clip-path="url(#clip0_194_37)">
<path d="M24.0175 6.66667C25.3733 6.66799 26.6731 7.20714 27.6317 8.16579C28.5904 9.12444 29.1295 10.4243 29.1309 11.78C29.1309 12.222 29.3065 12.646 29.619 12.9585C29.9316 13.2711 30.3555 13.4467 30.7975 13.4467C31.2396 13.4467 31.6635 13.2711 31.976 12.9585C32.2886 12.646 32.4642 12.222 32.4642 11.78V11.6667C32.4642 11.635 32.4642 11.6067 32.4642 11.575C32.4086 9.37122 31.4944 7.2763 29.9166 5.73676C28.3387 4.19722 26.222 3.3348 24.0175 3.33333H22.4642V1.66667C22.4642 1.22464 22.2886 0.800716 21.976 0.488155C21.6635 0.175595 21.2396 0 20.7975 0C20.3555 0 19.9316 0.175595 19.619 0.488155C19.3065 0.800716 19.1309 1.22464 19.1309 1.66667V3.33333H17.5775C15.5731 3.33547 13.6347 4.05039 12.1088 5.3503C10.583 6.6502 9.56921 8.45037 9.24861 10.429C8.92802 12.4077 9.32154 14.4359 10.3588 16.1511C11.3961 17.8663 13.0096 19.1567 14.9109 19.7917L19.1309 21.2V33.3333H17.5775C16.2218 33.332 14.922 32.7929 13.9633 31.8342C13.0047 30.8756 12.4655 29.5757 12.4642 28.22C12.4642 27.778 12.2886 27.354 11.976 27.0415C11.6635 26.7289 11.2396 26.5533 10.7975 26.5533C10.3555 26.5533 9.93158 26.7289 9.61902 27.0415C9.30645 27.354 9.13086 27.778 9.13086 28.22V28.3333C9.13086 28.365 9.13086 28.3933 9.13086 28.425C9.18648 30.6288 10.1006 32.7237 11.6785 34.2632C13.2563 35.8028 15.373 36.6652 17.5775 36.6667H19.1309V38.3333C19.1309 38.7754 19.3065 39.1993 19.619 39.5118C19.9316 39.8244 20.3555 40 20.7975 40C21.2396 40 21.6635 39.8244 21.976 39.5118C22.2886 39.1993 22.4642 38.7754 22.4642 38.3333V36.6667H24.0175C26.022 36.6645 27.9604 35.9496 29.4862 34.6497C31.012 33.3498 32.0258 31.5496 32.3464 29.571C32.667 27.5923 32.2735 25.5641 31.2362 23.8489C30.1989 22.1337 28.5854 20.8433 26.6842 20.2083L22.4642 18.8V6.66667H24.0175ZM25.6342 23.3683C26.7866 23.7519 27.7648 24.5331 28.3937 25.5721C29.0227 26.6111 29.2613 27.84 29.0668 29.0389C28.8723 30.2377 28.2574 31.3282 27.3322 32.115C26.4071 32.9019 25.2321 33.3338 24.0175 33.3333H22.4642V22.3117L25.6342 23.3683ZM19.1309 17.6883L15.9642 16.6317C14.8121 16.2482 13.834 15.4673 13.2051 14.4286C12.5761 13.39 12.3373 12.1614 12.5314 10.9628C12.7254 9.76416 13.3397 8.6737 14.2642 7.88657C15.1888 7.09944 16.3633 6.66701 17.5775 6.66667H19.1309V17.6883Z" fill="#602E9A"/>
</g>
<defs>
<clipPath id="clip0_194_37">
<rect width="40" height="40" fill="white" transform="translate(0.796875)"/>
</clipPath>
</defs>
</svg>
