<svg width="16" height="18" viewBox="0 0 16 18" fill="none" xmlns="http://www.w3.org/2000/svg">
<path d="M8 7C6.34315 7 5 5.65685 5 4C5 2.34315 6.34315 1 8 1C9.65685 1 11 2.34315 11 4C11 5.65685 9.65685 7 8 7ZM8 9C11.9053 9 15 12.0276 15 15.6763C15 16.697 14.8061 16.9333 14.7818 16.9564C14.7788 16.9593 14.7757 16.9619 14.7668 16.966C14.756 16.9709 14.73 16.9809 14.6799 16.9888C14.5705 17.0061 14.395 17.0066 14.1187 16.967C13.7407 16.9129 13.3354 16.8136 12.8369 16.6914C12.5506 16.6213 12.2336 16.5436 11.8733 16.4626C10.9444 16.2538 9.85054 16.058 8.64 16.058C7.43498 16.058 6.26521 16.2524 5.23155 16.4574C4.92526 16.5181 4.63682 16.5783 4.36359 16.6353C3.67655 16.7786 3.0857 16.9019 2.54914 16.9635C1.77582 17.0522 1.44488 16.9622 1.30554 16.8638C1.23205 16.8119 1 16.6044 1 15.6763C1 12.0276 4.09467 9 8 9Z" stroke="#EAEAEA" stroke-width="2"/>
</svg>
