<svg width="19" height="18" viewBox="0 0 19 18" fill="none" xmlns="http://www.w3.org/2000/svg">
<path d="M9.49775 17.3064C8.82193 17.2447 8.17856 16.9811 7.64718 16.5483C6.94431 16.0403 6.27853 15.4804 5.65516 14.8729C4.4686 13.7444 3.05824 12.2272 1.45892 10.3612C0.477366 9.18114 -0.0416666 7.66897 0.0026171 6.11835C0.0469008 4.56773 0.65134 3.08932 1.69855 1.97025C2.6927 0.882121 4.05609 0.227034 5.50736 0.140179C6.95862 0.0533232 8.38702 0.541328 9.49775 1.50348C10.6086 0.5414 12.0369 0.0530696 13.4883 0.139102C14.9397 0.225135 16.3036 0.878976 17.2991 1.96591C18.3477 3.08529 18.9531 4.5648 18.9974 6.11668C19.0417 7.66857 18.5217 9.18188 17.5387 10.3623C15.9404 12.2272 14.529 13.7455 13.3425 14.874C12.7193 15.4803 12.0539 16.0391 11.3515 16.5461C10.8195 16.9803 10.1749 17.2446 9.49775 17.3064ZM5.83884 1.86195C5.27723 1.86195 4.72154 1.97963 4.20582 2.20775C3.69011 2.43588 3.22524 2.76965 2.83972 3.1886C2.08698 3.9864 1.6504 5.0429 1.61489 6.15262C1.57938 7.26234 1.94747 8.34594 2.64759 9.19266C4.21102 11.0175 5.58337 12.4936 6.72665 13.5787C7.28814 14.1282 7.88794 14.6349 8.52127 15.0949C8.80722 15.329 9.14102 15.4937 9.49775 15.5768C9.8542 15.4932 10.1876 15.3281 10.4732 15.0938C11.1065 14.6339 11.7063 14.1271 12.2678 13.5777C13.4111 12.4947 14.7834 11.0164 16.3469 9.19158C17.0467 8.34475 17.4147 7.2612 17.3792 6.15155C17.3437 5.0419 16.9072 3.98543 16.1547 3.18752C15.4344 2.39968 14.4468 1.92559 13.3956 1.86312C12.3445 1.80065 11.3101 2.15456 10.5059 2.85179L9.49775 3.71926L8.48749 2.85288C7.74493 2.21535 6.80818 1.86475 5.8399 1.86195H5.83884Z" fill="#EAEAEA"/>
</svg>
