<svg width="15" height="19" viewBox="0 0 15 19" fill="none" xmlns="http://www.w3.org/2000/svg">
<path d="M7.5 19C7.10557 18.9994 6.72542 18.859 6.43327 18.6058C5.00946 17.3643 3.73712 15.973 2.64047 14.4585C1.02728 12.3777 0.1072 9.8812 0 7.29393C0 5.39378 0.790176 3.57145 2.1967 2.22784C3.60322 0.884228 5.51088 0.129395 7.5 0.129395C9.48912 0.129395 11.3968 0.884228 12.8033 2.22784C14.2098 3.57145 15 5.39378 15 7.29393C14.8923 9.88143 13.9723 12.3782 12.3595 14.4595C11.2625 15.9741 9.98976 17.3654 8.56563 18.6069C8.27376 18.8596 7.89396 18.9998 7.5 19ZM7.5 1.72186C5.95335 1.72325 4.47044 2.31072 3.37668 3.35535C2.28293 4.39999 1.66768 5.81646 1.66593 7.29393C1.77248 9.56087 2.59253 11.7444 4.01888 13.559C5.02414 14.9545 6.192 16.2364 7.5 17.3803C8.80887 16.2373 9.97681 14.9552 10.9811 13.559C12.4075 11.7444 13.2275 9.56087 13.3341 7.29393C13.3326 5.81628 12.7175 4.39954 11.6237 3.35468C10.5299 2.30982 9.04684 1.7222 7.5 1.72082V1.72186ZM7.5 10.4789C6.84085 10.4789 6.1965 10.2922 5.64842 9.94236C5.10034 9.59256 4.67314 9.09537 4.42084 8.51365C4.16855 7.93193 4.10248 7.29181 4.23099 6.67422C4.35951 6.05664 4.67683 5.48932 5.14285 5.044C5.60886 4.59869 6.20264 4.29537 6.8491 4.1724C7.49556 4.04943 8.16567 4.11233 8.77471 4.35315C9.38375 4.59397 9.90436 5.0019 10.2707 5.52535C10.6371 6.0488 10.8328 6.66427 10.833 7.29393C10.8321 8.1381 10.4807 8.94745 9.8558 9.54437C9.23094 10.1413 8.38369 10.477 7.5 10.4778V10.4789ZM7.5 5.70251C7.17025 5.70251 6.8479 5.79594 6.57373 5.97097C6.29957 6.146 6.0859 6.39477 5.95976 6.68581C5.83362 6.97686 5.80067 7.29711 5.86508 7.60604C5.92949 7.91498 6.08837 8.19873 6.32162 8.4214C6.55487 8.64407 6.85201 8.79565 7.17545 8.85698C7.4989 8.91831 7.83411 8.88662 8.13871 8.76593C8.4433 8.64524 8.70358 8.44097 8.88662 8.17895C9.06966 7.91693 9.16725 7.60894 9.16703 7.29393C9.16674 6.87167 8.99101 6.46678 8.67845 6.1682C8.36588 5.86961 7.94203 5.70174 7.5 5.70147V5.70251Z" fill="#EAEAEA"/>
</svg>
